<svg width="128" height="128" viewBox="0 0 128 128" fill="none" xmlns="http://www.w3.org/2000/svg">
<g clip-path="url(#clip0_1_88)">
<rect width="128" height="128" rx="25.6" fill="#442DD2"/>
<path fill-rule="evenodd" clip-rule="evenodd" d="M73.1984 74.5699C71.5999 76.1666 69.4754 77.0457 67.2148 77.0457C64.9547 77.0457 62.8294 76.1666 61.2308 74.5699L55.3979 68.7442L52.6101 65.9593L49.822 68.7442L43.9894 74.5699C42.3913 76.1666 40.2655 77.0457 38.0054 77.0457C35.7452 77.0457 33.6203 76.1666 32.0214 74.5699C30.4237 72.9737 29.5432 70.8512 29.5432 68.5933C29.5432 66.3358 30.4237 64.213 32.0214 62.6163L46.1242 48.5308L46.203 48.452L46.2775 48.3689C46.3986 48.2331 46.5082 48.1169 46.6111 48.0137C48.2093 46.4174 50.3346 45.5384 52.5963 45.5384H52.6208H52.6255C54.886 45.5384 57.011 46.4174 58.6099 48.0145C58.7128 48.1173 58.8212 48.2327 58.9415 48.3674L59.0164 48.4512L59.0961 48.5304L73.1988 62.6163C74.797 64.213 75.6771 66.3358 75.6771 68.5933C75.6771 70.8512 74.797 72.9737 73.1984 74.5699V74.5699ZM85.3482 48.0142C83.7497 46.4179 81.6248 45.5385 79.3646 45.5385C77.104 45.5385 74.9791 46.4179 73.3806 48.0142L68.768 52.6214L61.8842 45.7456C61.7272 45.57 61.566 45.3975 61.3972 45.2289C58.9754 42.8095 55.8 41.6 52.6255 41.6H52.6101H52.5947C49.4201 41.6 46.2452 42.8091 43.823 45.2289C43.6542 45.3975 43.4929 45.5704 43.3364 45.7456L29.2336 59.8315C24.3888 64.6707 24.3888 72.5161 29.2336 77.3549C31.6558 79.7747 34.8308 80.9842 38.0054 80.9842C41.1803 80.9842 44.3553 79.7747 46.7775 77.3549L52.6101 71.5292L58.4431 77.3549C60.8653 79.7747 64.0399 80.9842 67.2148 80.9842C70.3894 80.9842 73.5647 79.7747 75.9866 77.3549C79.0988 74.2467 80.208 69.8983 79.322 65.9023L87.9538 74.524C89.5523 76.1202 91.6768 76.9993 93.9378 76.9993C96.1979 76.9993 98.3229 76.1202 99.921 74.524C101.519 72.9273 102.4 70.8045 102.4 68.547C102.4 66.2894 101.519 64.1666 99.921 62.5703L85.3482 48.0142Z" fill="white"/>
</g>
<defs>
<clipPath id="clip0_1_88">
<rect width="128" height="128" fill="white"/>
</clipPath>
</defs>
</svg>
